<?xml version="1.0" encoding="UTF-8" standalone="no"?>
<!-- Created with Inkscape (http://www.inkscape.org/) -->

<svg
   version="1.1"
   id="svg2"
   width="583.54535"
   height="448.43866"
   viewBox="0 0 583.54535 448.43866"
   sodipodi:docname="WAE_Logo_blauw.ai"
   xmlns:inkscape="http://www.inkscape.org/namespaces/inkscape"
   xmlns:sodipodi="http://sodipodi.sourceforge.net/DTD/sodipodi-0.dtd"
   xmlns="http://www.w3.org/2000/svg"
   xmlns:svg="http://www.w3.org/2000/svg">
  <defs
     id="defs6">
    <clipPath
       clipPathUnits="userSpaceOnUse"
       id="clipPath16">
      <path
         d="M 0,336.329 H 437.659 V 0 H 0 Z"
         id="path14" />
    </clipPath>
  </defs>
  <sodipodi:namedview
     id="namedview4"
     pagecolor="#ffffff"
     bordercolor="#000000"
     borderopacity="0.25"
     inkscape:showpageshadow="2"
     inkscape:pageopacity="0.0"
     inkscape:pagecheckerboard="0"
     inkscape:deskcolor="#d1d1d1" />
  <g
     id="g8"
     inkscape:groupmode="layer"
     inkscape:label="WAE_Logo_blauw"
     transform="matrix(1.3333333,0,0,-1.3333333,0,448.43867)">
    <g
       id="g10">
      <g
         id="g12"
         clip-path="url(#clipPath16)">
        <g
           id="g18"
           transform="translate(352.8418,39.1586)">
          <path
             d="m 0,0 -0.409,0.407 -54.268,53.888 0.406,0.411 c 27.658,27.853 27.5,73.017 -0.354,100.676 -27.852,27.656 -73.017,27.498 -100.677,-0.352 l -0.406,-0.41 -0.409,0.407 -54.268,53.888 0.406,0.411 c 27.902,28.097 65.075,43.647 104.672,43.785 0.177,0 0.359,0.002 0.535,0.002 39.401,0 76.47,-15.276 104.443,-43.055 C 27.769,182.156 43.318,144.983 43.459,105.387 43.598,65.788 28.308,28.508 0.405,0.41 Z"
             style="fill:#024ce6;fill-opacity:1;fill-rule:nonzero;stroke:none"
             id="path20" />
        </g>
        <g
           id="g22"
           transform="translate(164.2788,138.9242)">
          <path
             d="m 0,0 v 0.732 h -10.671 c -4.392,0 -7.531,-2.719 -7.531,-6.799 0,-3.452 2.929,-5.858 7.008,-5.858 C -4.081,-11.925 0,-6.695 0,0 M 14.436,12.239 V -21.653 H 0 v 7.322 c -1.779,-4.916 -7.637,-8.159 -14.855,-8.159 -10.251,0 -17.26,6.799 -17.26,15.795 0,10.357 7.741,16.633 19.248,16.633 h 8.891 c 2.615,0 3.976,1.673 3.976,3.87 0,4.393 -3.453,7.427 -9.415,7.427 -6.381,0 -9.625,-3.975 -9.833,-8.368 h -12.971 c 0.628,10.565 9.205,19.038 23.64,19.038 13.285,0 23.015,-7.741 23.015,-19.666"
             style="fill:#010101;fill-opacity:1;fill-rule:nonzero;stroke:none"
             id="path24" />
        </g>
        <g
           id="g26"
           transform="translate(212.5352,157.8578)">
          <path
             d="m 0,0 c -7.218,0 -10.461,-5.962 -10.461,-14.959 v -25.628 h -14.644 v 52.721 h 14.644 V 3.347 c 2.825,6.591 6.8,8.787 13.181,8.787 H 8.682 V 0 Z"
             style="fill:#010101;fill-opacity:1;fill-rule:nonzero;stroke:none"
             id="path28" />
        </g>
        <g
           id="g30"
           transform="translate(237.2442,149.5937)">
          <path
             d="M 0,0 H 23.328 C 22.909,5.858 18.83,10.565 11.82,10.565 5.23,10.565 1.256,7.323 0,0 M 37.973,-14.435 C 35.881,-25.837 25.838,-33.16 12.867,-33.16 c -17.888,0 -27.093,14.017 -27.093,27.302 0,13.39 8.159,27.093 26.046,27.093 18.62,0 26.048,-13.703 26.048,-25.733 0,-1.987 -0.105,-3.556 -0.21,-4.707 H -0.208 c 1.046,-7.427 5.753,-12.029 13.075,-12.029 5.858,0 9.728,2.301 10.879,6.799 z"
             style="fill:#010101;fill-opacity:1;fill-rule:nonzero;stroke:none"
             id="path32" />
        </g>
        <g
           id="g34"
           transform="translate(41.6216,247.9604)">
          <path
             d="M 0,0 H 14.644 L 23.536,-32.532 32.846,0 H 46.13 L 55.545,-32.532 64.437,0 h 14.54 L 61.927,-52.721 H 49.164 l -9.623,32.846 -9.729,-32.846 H 17.154 Z"
             style="fill:#010101;fill-opacity:1;fill-rule:nonzero;stroke:none"
             id="path36" />
        </g>
        <g
           id="g38"
           transform="translate(134.6089,227.5619)">
          <path
             d="M 0,0 H 23.328 C 22.909,5.858 18.83,10.565 11.82,10.565 5.23,10.565 1.256,7.323 0,0 M 37.973,-14.435 C 35.881,-25.837 25.838,-33.16 12.867,-33.16 c -17.888,0 -27.093,14.017 -27.093,27.302 0,13.39 8.159,27.093 26.046,27.093 18.62,0 26.048,-13.703 26.048,-25.733 0,-1.987 -0.105,-3.556 -0.21,-4.707 H -0.208 c 1.046,-7.427 5.753,-12.029 13.075,-12.029 5.858,0 9.728,2.301 10.879,6.799 z"
             style="fill:#010101;fill-opacity:1;fill-rule:nonzero;stroke:none"
             id="path40" />
        </g>
        <g
           id="g42"
           transform="translate(290.0152,73.1332)">
          <path
             d="M 0,0 H 23.328 C 22.91,5.858 18.83,10.565 11.821,10.565 5.231,10.565 1.256,7.323 0,0 M 37.973,-14.435 C 35.881,-25.837 25.838,-33.16 12.867,-33.16 c -17.888,0 -27.093,14.018 -27.093,27.303 0,13.389 8.16,27.092 26.047,27.092 18.62,0 26.048,-13.703 26.048,-25.733 0,-1.987 -0.106,-3.556 -0.21,-4.707 H -0.208 c 1.046,-7.427 5.753,-12.029 13.075,-12.029 5.858,0 9.728,2.301 10.879,6.799 z"
             style="fill:#010101;fill-opacity:1;fill-rule:nonzero;stroke:none"
             id="path44" />
        </g>
      </g>
    </g>
  </g>
</svg>
